<svg width="70" height="70" viewBox="0 0 70 70" fill="none" xmlns="http://www.w3.org/2000/svg">
<g id="OBJECTS" clip-path="url(#clip0_59_308)">
<g id="Group">
<path id="Vector" d="M70.0001 24.9357H67.5967V70H70.0001V24.9357Z" fill="#231F20"/>
<path id="Vector_2" d="M45.0644 0H0V2.40343H45.0644V0Z" fill="#231F20"/>
</g>
<path id="Vector_3" d="M35.0001 25.9227C40.0001 25.9227 44.0774 30 44.0774 35C44.0774 40 40.0001 44.0772 35.0001 44.0772C30.0001 44.0772 25.9229 40 25.9229 35C25.9229 30 30.0001 25.9227 35.0001 25.9227ZM35.0001 41.9313C38.8198 41.9313 41.9314 38.8197 41.9314 35C41.9314 31.1802 38.8198 28.0687 35.0001 28.0687C31.1804 28.0687 28.0688 31.1802 28.0688 35C28.0688 38.8197 31.1804 41.9313 35.0001 41.9313Z" fill="#231F20"/>
<path id="Vector_4" d="M35.7081 20.4292H34.2917V49.5708H35.7081V20.4292Z" fill="#231F20"/>
<path id="Vector_5" d="M49.5708 34.2919H20.4292V35.7082H49.5708V34.2919Z" fill="#231F20"/>
</g>
<defs>
<clipPath id="clip0_59_308">
<rect width="70" height="70" fill="white"/>
</clipPath>
</defs>
</svg>
