<svg width="70" height="70" viewBox="0 0 70 70" fill="none" xmlns="http://www.w3.org/2000/svg">
<g id="OBJECTS" clip-path="url(#clip0_59_301)">
<g id="Group">
<path id="Vector" d="M-0.000110865 24.9357H2.40332V70H-0.000110865V24.9357Z" fill="#231F20"/>
<path id="Vector_2" d="M24.9356 0H70V2.40343H24.9356V0Z" fill="#231F20"/>
</g>
<path id="Vector_3" d="M34.9999 25.9227C29.9999 25.9227 25.9226 30 25.9226 35C25.9226 40 29.9999 44.0772 34.9999 44.0772C39.9999 44.0772 44.0771 40 44.0771 35C44.0771 30 39.9999 25.9227 34.9999 25.9227ZM34.9999 41.9313C31.1802 41.9313 28.0686 38.8197 28.0686 35C28.0686 31.1802 31.1802 28.0687 34.9999 28.0687C38.8196 28.0687 41.9312 31.1802 41.9312 35C41.9312 38.8197 38.8196 41.9313 34.9999 41.9313Z" fill="#231F20"/>
<path id="Vector_4" d="M34.2919 20.4292H35.7083V49.5708H34.2919V20.4292Z" fill="#231F20"/>
<path id="Vector_5" d="M20.4292 34.2917H49.5708V35.7081H20.4292V34.2917Z" fill="#231F20"/>
</g>
<defs>
<clipPath id="clip0_59_301">
<rect width="70" height="70" fill="white" transform="matrix(-1 0 0 1 70 0)"/>
</clipPath>
</defs>
</svg>
