<svg width="150" height="150" viewBox="0 0 150 150" fill="none" xmlns="http://www.w3.org/2000/svg">
<g id="Isolation_Mode" clip-path="url(#clip0_59_276)">
<g id="Group">
<path id="Vector" d="M72.7487 28.252C48.6904 29.3997 29.3997 48.6463 28.252 72.7487H72.7487V28.252Z" fill="black"/>
<path id="Vector_2" d="M28.252 77.2513C29.3997 101.31 48.6463 120.6 72.7487 121.748V77.2513H28.252Z" fill="black"/>
<path id="Vector_3" d="M121.748 72.7487C120.6 48.6904 101.354 29.3997 77.2512 28.252V72.7487H121.748Z" fill="black"/>
<path id="Vector_4" d="M77.2512 121.748C101.309 120.6 120.6 101.354 121.748 77.2513H77.2512V121.748Z" fill="black"/>
<path id="Vector_5" d="M72.7488 121.748V150H77.2514V121.748C76.501 121.748 75.7505 121.88 75.0001 121.88C74.2497 121.88 73.4992 121.792 72.7488 121.748Z" fill="black"/>
<path id="Vector_6" d="M77.2514 28.2519V0H72.7488V28.2519C73.4992 28.2519 74.2497 28.1195 75.0001 28.1195C75.7505 28.1195 76.501 28.2078 77.2514 28.2519Z" fill="black"/>
<path id="Vector_7" d="M28.2519 72.7487H0V77.2513H28.2519C28.2519 76.5009 28.1195 75.7504 28.1195 75C28.1195 74.2495 28.2078 73.4991 28.2519 72.7487Z" fill="black"/>
<path id="Vector_8" d="M150 72.7487H121.748C121.748 73.4991 121.88 74.2495 121.88 75C121.88 75.7504 121.792 76.5009 121.748 77.2513H150V72.7487Z" fill="black"/>
</g>
<path id="Vector_9" d="M139.361 75C139.361 110.536 110.536 139.361 75.0001 139.361C39.4645 139.361 10.6829 110.536 10.6829 75C10.6829 39.4644 39.4645 10.6827 75.0001 10.6827C110.536 10.6827 139.361 39.5085 139.361 75.0441V75Z" stroke="black" stroke-width="1.15" stroke-miterlimit="10"/>
</g>
<defs>
<clipPath id="clip0_59_276">
<rect width="150" height="150" fill="white"/>
</clipPath>
</defs>
</svg>
