<svg width="153" height="153" viewBox="0 0 153 153" fill="none" xmlns="http://www.w3.org/2000/svg">
<g id="OBJECTS" clip-path="url(#clip0_59_238)">
<g id="Group">
<g id="Group_2">
<path id="Vector" d="M21.8738 0H0V21.8822H21.8738V0Z" fill="black"/>
<path id="Vector_2" d="M65.563 0H43.6892V21.8822H65.563V0Z" fill="black"/>
<path id="Vector_3" d="M109.311 0H87.437V21.8822H109.311V0Z" fill="black"/>
<path id="Vector_4" d="M153 0H131.126V21.8822H153V0Z" fill="black"/>
</g>
<g id="Group_3">
<path id="Vector_5" d="M43.7476 21.8822H21.8738V43.7644H43.7476V21.8822Z" fill="black"/>
<path id="Vector_6" d="M87.4368 21.8822H65.563V43.7644H87.4368V21.8822Z" fill="black"/>
<path id="Vector_7" d="M131.126 21.8822H109.252V43.7644H131.126V21.8822Z" fill="black"/>
</g>
</g>
<g id="Group_4">
<g id="Group_5">
<path id="Vector_8" d="M21.8738 43.7059H0V65.5881H21.8738V43.7059Z" fill="black"/>
<path id="Vector_9" d="M65.563 43.7059H43.6892V65.5881H65.563V43.7059Z" fill="black"/>
<path id="Vector_10" d="M109.311 43.7059H87.437V65.5881H109.311V43.7059Z" fill="black"/>
<path id="Vector_11" d="M153 43.7059H131.126V65.5881H153V43.7059Z" fill="black"/>
</g>
<g id="Group_6">
<path id="Vector_12" d="M43.7476 65.5881H21.8738V87.4703H43.7476V65.5881Z" fill="black"/>
<path id="Vector_13" d="M87.4368 65.5881H65.563V87.4703H87.4368V65.5881Z" fill="black"/>
<path id="Vector_14" d="M131.126 65.5881H109.252V87.4703H131.126V65.5881Z" fill="black"/>
</g>
</g>
<g id="Group_7">
<g id="Group_8">
<path id="Vector_15" d="M21.8738 87.4119H0V109.294H21.8738V87.4119Z" fill="black"/>
<path id="Vector_16" d="M65.563 87.4119H43.6892V109.294H65.563V87.4119Z" fill="black"/>
<path id="Vector_17" d="M109.311 87.4119H87.437V109.294H109.311V87.4119Z" fill="black"/>
<path id="Vector_18" d="M153 87.4119H131.126V109.294H153V87.4119Z" fill="black"/>
</g>
<g id="Group_9">
<path id="Vector_19" d="M43.7476 109.294H21.8738V131.176H43.7476V109.294Z" fill="black"/>
<path id="Vector_20" d="M87.4368 109.294H65.563V131.176H87.4368V109.294Z" fill="black"/>
<path id="Vector_21" d="M131.126 109.294H109.252V131.176H131.126V109.294Z" fill="black"/>
</g>
</g>
<g id="Group_10">
<path id="Vector_22" d="M21.8738 131.176H0V153.058H21.8738V131.176Z" fill="black"/>
<path id="Vector_23" d="M65.563 131.176H43.6892V153.058H65.563V131.176Z" fill="black"/>
<path id="Vector_24" d="M109.311 131.176H87.437V153.058H109.311V131.176Z" fill="black"/>
<path id="Vector_25" d="M153 131.176H131.126V153.058H153V131.176Z" fill="black"/>
</g>
</g>
<defs>
<clipPath id="clip0_59_238">
<rect width="153" height="153" fill="white"/>
</clipPath>
</defs>
</svg>
