<svg width="70" height="70" viewBox="0 0 70 70" fill="none" xmlns="http://www.w3.org/2000/svg">
<g id="OBJECTS" clip-path="url(#clip0_59_294)">
<g id="Group">
<path id="Vector" d="M70.0001 45.0643H67.5967V-4.95911e-05H70.0001V45.0643Z" fill="#231F20"/>
<path id="Vector_2" d="M45.0644 70H0V67.5966H45.0644V70Z" fill="#231F20"/>
</g>
<path id="Vector_3" d="M35.0001 44.0773C40.0001 44.0773 44.0774 40 44.0774 35C44.0774 30 40.0001 25.9228 35.0001 25.9228C30.0001 25.9228 25.9229 30 25.9229 35C25.9229 40 30.0001 44.0773 35.0001 44.0773ZM35.0001 28.0687C38.8198 28.0687 41.9314 31.1803 41.9314 35C41.9314 38.8198 38.8198 41.9313 35.0001 41.9313C31.1804 41.9313 28.0688 38.8198 28.0688 35C28.0688 31.1803 31.1804 28.0687 35.0001 28.0687Z" fill="#231F20"/>
<path id="Vector_4" d="M35.7081 49.5708H34.2917V20.4292H35.7081V49.5708Z" fill="#231F20"/>
<path id="Vector_5" d="M49.5708 35.7081H20.4292V34.2918H49.5708V35.7081Z" fill="#231F20"/>
</g>
<defs>
<clipPath id="clip0_59_294">
<rect width="70" height="70" fill="white" transform="matrix(1 0 0 -1 0 70)"/>
</clipPath>
</defs>
</svg>
