<svg width="70" height="70" viewBox="0 0 70 70" fill="none" xmlns="http://www.w3.org/2000/svg">
<g id="OBJECTS" clip-path="url(#clip0_59_287)">
<g id="Group">
<path id="Vector" d="M-0.000110865 45.0643H2.40332V-4.95911e-05H-0.000110865V45.0643Z" fill="#231F20"/>
<path id="Vector_2" d="M24.9356 70H70V67.5966H24.9356V70Z" fill="#231F20"/>
</g>
<path id="Vector_3" d="M34.9999 44.0773C29.9999 44.0773 25.9226 40 25.9226 35C25.9226 30 29.9999 25.9228 34.9999 25.9228C39.9999 25.9228 44.0771 30 44.0771 35C44.0771 40 39.9999 44.0773 34.9999 44.0773ZM34.9999 28.0687C31.1802 28.0687 28.0686 31.1803 28.0686 35C28.0686 38.8198 31.1802 41.9313 34.9999 41.9313C38.8196 41.9313 41.9312 38.8198 41.9312 35C41.9312 31.1803 38.8196 28.0687 34.9999 28.0687Z" fill="#231F20"/>
<path id="Vector_4" d="M34.2919 49.5708H35.7083V20.4292H34.2919V49.5708Z" fill="#231F20"/>
<path id="Vector_5" d="M20.4292 35.7081H49.5708V34.2918H20.4292V35.7081Z" fill="#231F20"/>
</g>
<defs>
<clipPath id="clip0_59_287">
<rect width="70" height="70" fill="white" transform="matrix(-1 0 0 -1 70 70)"/>
</clipPath>
</defs>
</svg>
